<svg xmlns="http://www.w3.org/2000/svg" viewBox="0 0 1080 1080"><defs><linearGradient id="bg" x1="0" y1="0" x2="1" y2="1"><stop offset="0" stop-color="#ffffff"/><stop offset="0.55" stop-color="#e5eef7"/><stop offset="1" stop-color="#9abbd5"/></linearGradient><linearGradient id="band" x1="0" x2="1"><stop stop-color="#082c63"/><stop offset="1" stop-color="#0d4c8b"/></linearGradient></defs><rect width="1080" height="1080" fill="url(#bg)"/><rect x="580" y="90" width="420" height="360" rx="28" fill="#dfeaf5" stroke="#8eb4d4" stroke-width="4"/><rect x="605" y="120" width="175" height="130" rx="14" fill="#edf5fb"/><rect x="800" y="120" width="175" height="130" rx="14" fill="#edf5fb"/><rect x="605" y="270" width="175" height="150" rx="14" fill="#edf5fb"/><rect x="800" y="270" width="175" height="150" rx="14" fill="#edf5fb"/><path d="M630 225l35-35 38 18 42-55" fill="none" stroke="#3f8bc4" stroke-width="8"/><path d="M825 225h120M825 195h95M825 165h125" stroke="#6fa3c8" stroke-width="8"/><circle cx="690" cy="345" r="52" fill="#6fa3c8"/><path d="M690 345v-52a52 52 0 1 1-52 52h52z" fill="#257fc1"/><path d="M825 390h115M825 355h90M825 320h125" stroke="#6fa3c8" stroke-width="8"/><text x="78" y="210" font-size="82" font-weight="800" font-family="PingFang SC,Microsoft YaHei,sans-serif" fill="#082d66">工厂真正的</text><text x="78" y="325" font-size="98" font-weight="900" font-family="PingFang SC,Microsoft YaHei,sans-serif" fill="#082d66">数智化，</text><text x="78" y="420" font-size="49" font-family="PingFang SC,Microsoft YaHei,sans-serif" fill="#082d66">不是系统界面有多漂亮，</text><line x1="78" y1="450" x2="505" y2="450" stroke="#527fa8" stroke-width="3" stroke-dasharray="8 8"/><text x="78" y="540" font-size="61" font-weight="700" font-family="PingFang SC,Microsoft YaHei,sans-serif" fill="#082d66">而是计划、工时、物料、</text><text x="78" y="630" font-size="61" font-weight="700" font-family="PingFang SC,Microsoft YaHei,sans-serif" fill="#082d66">质量、交付能不能用</text><rect x="72" y="660" width="675" height="100" fill="url(#band)"/><text x="95" y="730" font-size="56" font-weight="700" font-family="PingFang SC,Microsoft YaHei,sans-serif" fill="#ffffff">同一套真实数据闭环。</text><g font-family="PingFang SC,Microsoft YaHei,sans-serif" fill="#0c376b"><circle cx="120" cy="850" r="42" fill="#edf5fb" stroke="#3d78a8" stroke-width="3"/><text x="120" y="860" text-anchor="middle" font-size="26">计</text><text x="120" y="925" text-anchor="middle" font-size="24">计划</text><circle cx="300" cy="850" r="42" fill="#edf5fb" stroke="#3d78a8" stroke-width="3"/><text x="300" y="860" text-anchor="middle" font-size="26">时</text><text x="300" y="925" text-anchor="middle" font-size="24">工时</text><circle cx="480" cy="850" r="42" fill="#edf5fb" stroke="#3d78a8" stroke-width="3"/><text x="480" y="860" text-anchor="middle" font-size="26">料</text><text x="480" y="925" text-anchor="middle" font-size="24">物料</text><circle cx="660" cy="850" r="42" fill="#edf5fb" stroke="#3d78a8" stroke-width="3"/><text x="660" y="860" text-anchor="middle" font-size="26">质</text><text x="660" y="925" text-anchor="middle" font-size="24">质量</text><circle cx="840" cy="850" r="42" fill="#edf5fb" stroke="#3d78a8" stroke-width="3"/><text x="840" y="860" text-anchor="middle" font-size="26">交</text><text x="840" y="925" text-anchor="middle" font-size="24">交付</text></g><path d="M165 850h90M345 850h90M525 850h90M705 850h90" stroke="#376f9d" stroke-width="4"/><rect x="0" y="950" width="1080" height="130" fill="#082d66"/><text x="540" y="1035" text-anchor="middle" font-size="34" font-family="PingFang SC,Microsoft YaHei,sans-serif" fill="#ffffff">每日工程版简报｜朋友圈素材</text></svg>