<svg xmlns="http://www.w3.org/2000/svg" width="1200" height="720" viewBox="0 0 1200 720" role="img" aria-labelledby="title desc"><title id="title">标准工时 制造改善的数据起点</title><desc id="desc">标准工时连接人员配置、产能规划、生产排程、成本核算与ERP MES基础数据</desc><defs><linearGradient id="bg" x1="0" y1="0" x2="1" y2="1"><stop offset="0" stop-color="#0f4b5a"/><stop offset="1" stop-color="#173b4c"/></linearGradient><linearGradient id="panel" x1="0" y1="0" x2="0" y2="1"><stop offset="0" stop-color="#ffffff" stop-opacity=".98"/><stop offset="1" stop-color="#eef7f5" stop-opacity=".96"/></linearGradient></defs><rect width="1200" height="720" fill="url(#bg)"/><circle cx="1060" cy="95" r="155" fill="#ffffff" opacity=".05"/><circle cx="1050" cy="610" r="220" fill="#f5c861" opacity=".06"/><text x="72" y="105" fill="#f5c861" font-size="26" font-weight="700" letter-spacing="3">IE STANDARD TIME</text><text x="72" y="178" fill="#ffffff" font-size="56" font-weight="900">标准工时</text><text x="72" y="238" fill="#dff1ee" font-size="34" font-weight="700">制造改善的数据起点</text><rect x="72" y="285" width="1056" height="330" rx="26" fill="url(#panel)"/><g font-family="Arial,Microsoft YaHei,sans-serif"><g transform="translate(118 340)"><circle cx="52" cy="52" r="48" fill="#dcefed"/><path d="M52 22a30 30 0 1 0 30 30A30 30 0 0 0 52 22zm0 8v22l15 10" fill="none" stroke="#0f6671" stroke-width="7" stroke-linecap="round"/><text x="52" y="126" text-anchor="middle" fill="#173b4c" font-size="22" font-weight="800">测时分析</text></g><path d="M235 392h78" stroke="#8ab9b4" stroke-width="6" stroke-linecap="round"/><polygon points="313,392 295,381 295,403" fill="#8ab9b4"/><g transform="translate(328 340)"><rect x="5" y="8" width="94" height="88" rx="14" fill="#dcefed"/><path d="M25 34h54M25 54h54M25 74h35" stroke="#0f6671" stroke-width="7" stroke-linecap="round"/><text x="52" y="126" text-anchor="middle" fill="#173b4c" font-size="22" font-weight="800">标准数据库</text></g><path d="M445 392h78" stroke="#8ab9b4" stroke-width="6" stroke-linecap="round"/><polygon points="523,392 505,381 505,403" fill="#8ab9b4"/><g transform="translate(538 340)"><rect x="4" y="12" width="96" height="80" rx="12" fill="#dcefed"/><path d="M24 69V48M48 69V34M72 69V25" stroke="#0f6671" stroke-width="10" stroke-linecap="round"/><text x="52" y="126" text-anchor="middle" fill="#173b4c" font-size="22" font-weight="800">产能规划</text></g><path d="M655 392h78" stroke="#8ab9b4" stroke-width="6" stroke-linecap="round"/><polygon points="733,392 715,381 715,403" fill="#8ab9b4"/><g transform="translate(748 340)"><rect x="5" y="13" width="94" height="78" rx="12" fill="#dcefed"/><text x="52" y="48" text-anchor="middle" fill="#0f6671" font-size="25" font-weight="900">ERP</text><text x="52" y="76" text-anchor="middle" fill="#0f6671" font-size="25" font-weight="900">MES</text><text x="52" y="126" text-anchor="middle" fill="#173b4c" font-size="22" font-weight="800">系统基础数据</text></g><path d="M865 392h78" stroke="#8ab9b4" stroke-width="6" stroke-linecap="round"/><polygon points="943,392 925,381 925,403" fill="#8ab9b4"/><g transform="translate(958 340)"><circle cx="52" cy="52" r="48" fill="#f6e9b9"/><path d="M32 55l14 14 29-34" fill="none" stroke="#8b6a15" stroke-width="8" stroke-linecap="round" stroke-linejoin="round"/><text x="52" y="126" text-anchor="middle" fill="#173b4c" font-size="22" font-weight="800">改善量化</text></g><text x="600" y="555" text-anchor="middle" fill="#355b61" font-size="26" font-weight="800">用标准定义现状 · 用数据发现浪费 · 用改善提升能力</text></g><text x="72" y="672" fill="#dff1ee" font-size="24" font-weight="700">Standard Time｜Capacity Planning｜ERP / MES Data</text></svg>