<svg xmlns="http://www.w3.org/2000/svg" viewBox="0 0 1080 1080" role="img" aria-labelledby="t d"><title id="t">真正的数智化工厂</title><desc id="d">每日工程版简报朋友圈配图</desc><defs><linearGradient id="bg" x1="0" y1="0" x2="1" y2="1"><stop offset="0" stop-color="#f8fbff"/><stop offset=".52" stop-color="#dce9f7"/><stop offset="1" stop-color="#8eb4d4"/></linearGradient><linearGradient id="band" x1="0" x2="1"><stop stop-color="#062b62"/><stop offset="1" stop-color="#0b4d91"/></linearGradient><filter id="s"><feDropShadow dx="0" dy="8" stdDeviation="10" flood-color="#082b55" flood-opacity=".2"/></filter></defs><rect width="1080" height="1080" fill="url(#bg)"/><g opacity=".42"><rect x="620" y="120" width="380" height="580" rx="22" fill="#d8e8f6"/><path d="M650 180h300M650 250h300M650 320h300M650 390h300M650 460h300" stroke="#7ea8ca" stroke-width="8"/><path d="M650 520h300M650 590h300" stroke="#7ea8ca" stroke-width="8"/></g><g opacity=".85" filter="url(#s)"><rect x="745" y="335" width="250" height="210" rx="24" fill="#cfe6fa" stroke="#4f92c8" stroke-width="4"/><path d="M785 480l45-72 48 30 48-76" fill="none" stroke="#1378c8" stroke-width="10"/><circle cx="830" cy="408" r="8" fill="#1378c8"/><circle cx="878" cy="438" r="8" fill="#1378c8"/><circle cx="926" cy="362" r="8" fill="#1378c8"/></g><g transform="translate(760 580)" opacity=".95"><rect x="0" y="0" width="250" height="250" rx="26" fill="#edf6fc"/><path d="M122 35c52 0 94 42 94 94s-42 94-94 94-94-42-94-94 42-94 94-94z" fill="#bdd9ef"/><path d="M122 129V65a64 64 0 1 1-64 64h64z" fill="#257fc1"/><circle cx="122" cy="129" r="30" fill="#edf6fc"/></g><g opacity=".9"><rect x="610" y="800" width="420" height="18" fill="#7aa6c7"/><rect x="650" y="740" width="70" height="60" fill="#a6c8df"/><rect x="745" y="700" width="70" height="100" fill="#7fafcf"/><rect x="840" y="650" width="70" height="150" fill="#4f92c8"/><rect x="935" y="600" width="70" height="200" fill="#1d78b8"/></g><text x="72" y="135" font-size="88" font-family="Georgia,serif" fill="#082d66">“</text><line x1="165" y1="116" x2="420" y2="116" stroke="#2c5f94" stroke-width="3"/><g font-family="PingFang SC,Microsoft YaHei,sans-serif" fill="#082d66"><text x="78" y="255" font-size="76" font-weight="800">真正的数智化工厂，</text><text x="78" y="365" font-size="68">不是系统有多先进，</text><text x="78" y="475" font-size="68">而是数据有多真实、</text></g><rect x="66" y="505" width="730" height="108" rx="4" fill="url(#band)"/><text x="90" y="580" font-size="56" font-family="PingFang SC,Microsoft YaHei,sans-serif" fill="#fff" font-weight="700">决策有多快、改善有多持续。</text><g opacity=".95"><rect x="0" y="950" width="1080" height="130" fill="#082d66"/><line x1="70" y1="1015" x2="260" y2="1015" stroke="#d9e7f3" stroke-width="3"/><line x1="820" y1="1015" x2="1010" y2="1015" stroke="#d9e7f3" stroke-width="3"/><text x="540" y="1035" text-anchor="middle" font-size="34" font-family="PingFang SC,Microsoft YaHei,sans-serif" fill="#fff">每日工程版简报｜朋友圈素材</text></g></svg>